<svg xmlns="http://www.w3.org/2000/svg" xmlns:xlink="http://www.w3.org/1999/xlink" viewBox="0,0,256,256" width="64px" height="64px"><g fill="none" fill-rule="nonzero" stroke="none" stroke-width="none" stroke-linecap="none" stroke-linejoin="none" stroke-miterlimit="10" stroke-dasharray="" stroke-dashoffset="0" font-family="none" font-weight="none" font-size="none" text-anchor="none" style="mix-blend-mode: normal"><g transform="scale(4,4)"><ellipse cx="34.75" cy="61" rx="19.75" ry="3" fill="#000000" stroke="none" stroke-width="1" stroke-linecap="butt" stroke-linejoin="miter" opacity="0.3"></ellipse><circle cx="25.5" cy="49.5" r="4.5" fill="#9c34c2" stroke="none" stroke-width="1" stroke-linecap="butt" stroke-linejoin="miter"></circle><circle cx="44.5" cy="49.5" r="4.5" fill="#9c34c2" stroke="none" stroke-width="1" stroke-linecap="butt" stroke-linejoin="miter"></circle><path d="M53.283,17h-34.441l-0.932,-3.728c-0.269,-1.075 -1.108,-1.914 -2.183,-2.183l-8,-2c-1.605,-0.403 -3.237,0.575 -3.638,2.183c-0.402,1.607 0.576,3.236 2.183,3.638l6.254,1.563l6.563,26.254c0.334,1.336 1.535,2.273 2.911,2.273h26c1.464,0 2.679,-1.05 2.943,-2.436l5.257,-21.863c0.454,-1.886 -0.976,-3.701 -2.917,-3.701z" fill="#4ccff1" stroke="none" stroke-width="1" stroke-linecap="butt" stroke-linejoin="miter"></path><path d="M50.943,42.564l5.119,-21.29c-2.688,-0.648 -5.385,1.008 -6.03,3.692l-3.247,13.502c-0.216,0.898 -1.02,1.532 -1.944,1.532h-7.841c-2.761,0 -5,2.239 -5,5h16c1.464,0 2.679,-1.05 2.943,-2.436z" fill="#000000" stroke="none" stroke-width="1" stroke-linecap="butt" stroke-linejoin="miter" opacity="0.15"></path><path d="M42,17h-23.158l-0.932,-3.727c-0.269,-1.075 -1.108,-1.914 -2.183,-2.183l-8,-2c-1.794,-0.451 -3.62,0.824 -3.727,2.774c-0.079,1.449 0.975,2.724 2.383,3.076l6.142,1.535l5.613,22.454c2.679,-0.67 4.308,-3.384 3.638,-6.063l-2.095,-8.38c-0.314,-1.263 0.641,-2.486 1.942,-2.486h15.377c2.761,0 5,-2.239 5,-5z" fill="#ffffff" stroke="none" stroke-width="1" stroke-linecap="butt" stroke-linejoin="miter" opacity="0.3"></path><path d="M17.438,21.5l1.444,5.933" fill="none" stroke="#ffffff" stroke-width="3" stroke-linecap="round" stroke-linejoin="round"></path></g></g></svg>