<svg xmlns="http://www.w3.org/2000/svg" xmlns:xlink="http://www.w3.org/1999/xlink" viewBox="0,0,256,256" width="48px" height="48px"><g fill="#9c34c2" fill-rule="nonzero" stroke="none" stroke-width="1" stroke-linecap="butt" stroke-linejoin="miter" stroke-miterlimit="10" stroke-dasharray="" stroke-dashoffset="0" font-family="none" font-weight="none" font-size="none" text-anchor="none" style="mix-blend-mode: normal"><g transform="scale(5.33333,5.33333)"><path d="M35.54883,4.95117c-0.52109,-0.00536 -1.00764,0.26009 -1.28516,0.70117l-10.76367,15.69727l-10.76367,-15.69727c-0.2827,-0.42559 -0.76257,-0.67804 -1.27344,-0.66992c-0.55568,0.00971 -1.06046,0.32584 -1.31178,0.82153c-0.25133,0.49569 -0.20801,1.08971 0.11257,1.5437l11.41797,16.65234l-11.41797,16.65234c-0.32841,0.44108 -0.38917,1.02649 -0.15834,1.52561c0.23083,0.49912 0.71625,0.83194 1.26503,0.86733c0.54877,0.0354 1.07293,-0.2323 1.36597,-0.69763l10.76367,-15.69727l10.76367,15.69727c0.29304,0.46533 0.8172,0.73303 1.36597,0.69763c0.54877,-0.0354 1.0342,-0.36821 1.26503,-0.86733c0.23083,-0.49912 0.17007,-1.08453 -0.15834,-1.52561l-11.41797,-16.65234l11.41797,-16.65234c0.33739,-0.45273 0.392,-1.05656 0.14131,-1.56248c-0.25069,-0.50592 -0.76422,-0.82822 -1.32881,-0.83401z"></path></g></g></svg>